<?xml version="1.0" standalone="no"?>
<!DOCTYPE svg PUBLIC "-//W3C//DTD SVG 20010904//EN"
 "http://www.w3.org/TR/2001/REC-SVG-20010904/DTD/svg10.dtd">
<svg version="1.0" xmlns="http://www.w3.org/2000/svg"
 width="1182.000000pt" height="1280.000000pt" viewBox="0 0 1182.000000 1280.000000"
 preserveAspectRatio="xMidYMid meet">
<metadata>
Created by potrace 1.15, written by Peter Selinger 2001-2017
</metadata>
<g transform="translate(0.000000,1280.000000) scale(0.100000,-0.100000)"
fill="#000000" stroke="none">
<path d="M8677 12785 c-51 -19 -140 -73 -260 -159 -383 -273 -544 -581 -893
-1706 -127 -409 -184 -541 -263 -613 -52 -47 -214 -142 -510 -299 -289 -153
-415 -223 -529 -290 -152 -91 -248 -112 -475 -106 -181 6 -247 24 -430 118
-209 108 -657 370 -852 500 -126 83 -180 114 -228 129 -21 8 -48 27 -64 47
-38 51 -98 207 -129 336 -45 195 -90 338 -153 485 -33 78 -65 160 -71 182 -10
37 -56 145 -143 331 -88 191 -202 363 -320 487 -105 109 -178 157 -386 253
-221 103 -305 124 -393 100 -43 -12 -53 -32 -33 -70 22 -43 100 -94 259 -170
194 -92 272 -145 392 -264 210 -209 334 -452 548 -1076 212 -619 232 -664 342
-780 97 -101 195 -181 339 -276 169 -111 244 -150 639 -330 147 -67 226 -121
226 -156 0 -35 -72 -115 -256 -283 l-196 -180 5 -235 c4 -175 10 -248 22 -287
21 -70 107 -164 189 -206 54 -27 73 -31 164 -35 56 -2 102 -6 102 -9 0 -3 -31
-38 -69 -79 -79 -85 -142 -197 -167 -299 -32 -133 -62 -160 -137 -127 -100 45
-194 144 -562 593 l-243 295 -11 370 c-27 861 -38 944 -154 1169 -62 118 -118
185 -142 165 -9 -7 -15 -29 -15 -54 0 -56 -12 -73 -42 -59 -30 14 -177 131
-458 363 -276 229 -368 298 -524 396 -66 42 -134 88 -149 103 -49 44 -85 106
-103 172 -25 92 -35 100 -81 62 -21 -16 -51 -49 -68 -72 -27 -39 -30 -49 -30
-127 0 -60 -4 -87 -13 -93 -8 -5 -42 -11 -78 -14 -146 -14 -168 -81 -37 -116
22 -6 79 -15 127 -20 105 -10 206 -55 371 -166 130 -87 220 -164 303 -260 104
-122 188 -193 368 -316 133 -91 222 -172 256 -236 39 -73 62 -161 123 -483
143 -752 224 -1084 301 -1230 87 -167 332 -452 892 -1039 236 -247 289 -314
277 -350 -3 -11 -29 -34 -57 -52 -40 -26 -65 -34 -112 -37 -100 -6 -178 33
-410 206 -144 106 -320 211 -569 336 -200 101 -369 174 -458 197 -40 11 -54 9
-120 -10 -155 -47 -432 -209 -590 -344 -233 -199 -876 -962 -971 -1151 -66
-132 -123 -185 -298 -279 -107 -57 -378 -179 -449 -203 -39 -13 -72 -34 -120
-79 -71 -67 -132 -105 -169 -105 -38 0 -92 -28 -139 -70 -46 -44 -65 -54 -130
-70 -23 -6 -62 -26 -87 -45 -82 -62 -167 -98 -361 -150 -171 -47 -201 -72
-212 -180 -11 -104 62 -240 147 -275 38 -16 52 -5 86 67 35 73 119 132 386
269 233 119 315 168 373 225 31 29 53 41 93 49 109 20 299 111 372 176 80 72
545 324 629 340 l34 7 -7 -38 c-4 -22 -18 -59 -31 -84 -53 -105 -54 -160 -4
-176 46 -15 118 89 247 356 120 248 230 424 407 644 40 50 120 160 178 245
139 203 219 302 348 431 112 111 216 189 254 189 28 0 168 -88 368 -232 304
-218 427 -303 519 -359 152 -91 354 -161 688 -239 172 -40 184 -55 185 -235 0
-110 -2 -125 -27 -177 -53 -113 -164 -205 -382 -317 -64 -33 -140 -65 -171
-72 -113 -25 -222 12 -600 206 -245 125 -308 145 -515 166 -318 31 -514 -44
-604 -231 -31 -65 -31 -66 -31 -225 1 -114 6 -184 18 -245 62 -293 183 -675
400 -1266 148 -403 189 -529 193 -603 3 -48 7 -57 37 -82 19 -16 37 -39 41
-53 3 -14 -11 -89 -34 -180 -90 -356 -216 -1080 -255 -1466 -34 -341 -107
-702 -181 -902 -32 -85 -47 -143 -54 -213 -13 -112 -28 -159 -76 -237 -19 -31
-41 -76 -49 -99 -15 -40 -14 -44 4 -62 25 -25 85 -36 201 -36 111 -1 211 18
240 44 28 25 25 56 -12 115 -48 77 -44 131 41 598 39 215 103 569 141 785 39
215 97 536 130 712 65 352 160 909 160 940 0 3 5 5 10 5 6 0 10 -6 10 -13 0
-7 17 -29 38 -49 68 -66 165 -99 179 -62 9 23 -13 111 -69 279 -96 288 -188
498 -257 590 -56 74 -74 108 -131 245 -29 69 -90 204 -137 300 -114 237 -214
473 -275 654 -77 226 -77 324 -1 373 68 45 278 7 551 -98 327 -126 459 -160
699 -181 112 -9 173 -9 280 0 255 22 431 76 581 177 125 84 192 113 192 84 0
-7 -50 -59 -110 -118 -72 -69 -110 -113 -110 -127 0 -31 30 -53 102 -75 74
-23 108 -44 108 -65 0 -22 -61 -44 -123 -44 -207 0 -499 -193 -695 -458 -109
-148 -170 -300 -206 -512 -60 -361 -6 -685 176 -1043 228 -450 576 -823 921
-987 163 -78 236 -95 402 -94 133 0 144 2 225 32 47 18 113 52 147 75 177 121
532 486 739 760 216 286 344 724 315 1079 -27 329 -143 588 -361 809 -145 146
-352 280 -532 344 -129 45 -128 45 -128 66 0 10 11 35 25 55 32 46 32 88 0
139 -24 40 -32 79 -17 89 8 5 24 -3 83 -41 45 -30 107 -47 259 -73 156 -26
244 -52 342 -101 42 -21 94 -41 116 -45 49 -8 99 14 127 56 64 97 370 236 783
356 254 73 391 105 489 111 89 6 92 5 118 -21 25 -25 27 -32 21 -81 -3 -29
-20 -93 -36 -142 -44 -127 -137 -430 -220 -713 -150 -514 -211 -684 -382
-1055 -143 -311 -180 -425 -140 -425 5 0 28 15 52 32 84 64 132 98 141 98 16
0 29 -66 84 -435 14 -93 48 -296 75 -450 26 -154 58 -347 70 -429 25 -172 53
-283 104 -413 52 -131 84 -271 99 -425 11 -111 18 -141 40 -178 30 -52 50
-126 72 -265 21 -136 51 -243 81 -287 13 -21 24 -45 24 -53 0 -9 -29 -44 -65
-80 -69 -68 -83 -105 -46 -125 32 -16 71 -11 146 19 81 33 98 29 115 -26 26
-79 91 -115 165 -91 32 10 41 19 43 39 2 21 -4 31 -33 48 -57 33 -73 81 -119
359 -21 127 -29 154 -74 245 -87 176 -142 398 -142 572 0 114 -12 180 -76 430
-56 219 -91 384 -154 730 -28 154 -65 336 -83 405 -30 119 -32 133 -31 305 1
192 18 332 53 446 12 37 28 72 37 80 24 19 40 67 69 201 32 147 72 276 130
418 143 347 216 932 155 1232 -41 197 -98 292 -213 347 -94 46 -179 65 -287
65 -199 -1 -393 -85 -750 -324 -226 -152 -362 -210 -490 -210 -162 0 -336 100
-493 285 -97 114 -130 182 -135 282 -4 81 -4 83 25 111 38 35 117 73 341 166
97 40 200 85 227 99 81 41 251 157 384 261 147 117 276 206 297 206 22 0 73
28 120 65 62 51 140 94 236 131 102 40 158 43 208 13 122 -72 885 -928 1191
-1335 112 -149 170 -207 202 -202 21 3 26 14 42 90 7 38 44 48 65 17 32 -49
142 -149 271 -245 192 -144 239 -174 379 -242 69 -33 217 -115 330 -182 113
-67 292 -172 397 -233 256 -147 283 -172 347 -315 7 -17 17 -22 35 -20 34 4
66 71 86 183 9 50 30 159 46 244 36 183 34 201 -20 201 -49 0 -69 -23 -77 -86
-3 -27 -11 -62 -17 -78 -10 -26 -13 -28 -51 -23 -86 12 -256 95 -490 240 -72
44 -191 112 -265 152 -118 61 -138 76 -153 107 -21 44 -53 68 -136 102 -97 39
-223 110 -372 210 -238 160 -349 258 -393 348 -72 145 -734 824 -1067 1095
-149 121 -270 193 -420 250 -111 42 -205 31 -460 -54 -260 -86 -421 -191 -715
-463 -281 -260 -445 -327 -530 -216 -33 44 -32 87 5 180 17 41 33 102 36 135
9 81 31 113 105 153 78 41 117 79 349 344 258 295 300 351 368 482 117 227
187 422 203 562 7 61 17 101 38 140 34 66 55 159 76 330 27 223 73 426 146
643 73 215 124 317 203 409 23 26 52 69 66 95 42 79 420 389 554 454 68 33 96
54 219 161 162 141 259 195 376 205 68 6 101 17 101 33 0 21 -49 52 -115 72
-101 30 -162 63 -180 97 -47 91 -145 77 -145 -20 0 -56 -50 -101 -285 -257
-184 -122 -263 -179 -413 -294 -19 -16 -43 -28 -53 -28 -28 0 -83 -64 -181
-210 -103 -153 -145 -203 -200 -242 -48 -33 -65 -28 -74 20 -22 125 -110 55
-172 -138 -51 -156 -108 -483 -132 -765 -46 -541 -65 -639 -141 -741 -58 -79
-113 -173 -216 -368 -105 -199 -174 -311 -268 -431 -105 -133 -178 -195 -231
-195 -53 0 -60 19 -54 144 11 265 5 291 -116 474 l-83 127 97 6 c119 8 161 25
202 80 61 84 124 356 118 509 -6 157 -43 210 -285 411 -149 124 -200 183 -188
218 7 24 126 86 353 184 188 82 268 126 392 218 97 72 342 308 407 392 92 119
112 171 329 872 225 729 318 908 617 1187 231 216 352 341 365 376 10 30 9 36
-13 58 -28 28 -69 30 -128 9z"/>
</g>
</svg>
